<svg xmlns="http://www.w3.org/2000/svg" width="251.803" height="230.009" viewBox="0 0 251.803 230.009"><g transform="translate(-1315.878 -1226)"><g transform="translate(27 835.583)"><path d="M-5059-1050h-216l108-185,108,185v0h0Zm-107.5-132h0l-62.5,107h125l-62.5-107Z" transform="translate(6580.5 1625.417)" fill="#fff"/><path d="M-5183-1157h-30.078L-5229-1184l-15.923,27H-5275l46-78,46,78Z" transform="translate(6642.5 1699.417)" fill="#fff"/></g><path d="M-55.575,9.234l-2.13-5.924h-8.156l-2.087,5.924h-3.677l7.981-21.42h3.794l7.981,21.42ZM-58.624.3l-2-5.807q-.219-.584-.606-1.838t-.533-1.838a32.7,32.7,0,0,1-1.153,3.925L-64.84.3Zm54.652,8.93L-10.159-8.582h-.117q.248,3.969.248,7.441V9.234h-3.166V-12.1h4.917L-2.353,4.871h.088L3.834-12.1H8.766V9.234H5.41V-1.315q0-1.59.08-4.144t.139-3.093H5.512L-.894,9.234ZM66.963-12.1v13.8a8.186,8.186,0,0,1-1.014,4.137A6.757,6.757,0,0,1,63.017,8.57a10.193,10.193,0,0,1-4.589.956,8.584,8.584,0,0,1-6.172-2.1,7.6,7.6,0,0,1-2.2-5.778V-12.1h3.5V1.4a5.393,5.393,0,0,0,1.226,3.9,5.052,5.052,0,0,0,3.764,1.255q4.932,0,4.932-5.18V-12.1Zm44.8,9.922h2.422a5.531,5.531,0,0,0,3.531-.9,3.282,3.282,0,0,0,1.094-2.685,2.89,2.89,0,0,0-1.182-2.6,6.48,6.48,0,0,0-3.56-.788h-2.305Zm0,2.889V9.234h-3.487V-12.1h6.026q4.129,0,6.114,1.547A5.553,5.553,0,0,1,122.4-5.882q0,3.983-4.144,5.676l6.026,9.44h-3.969L115.21.713Zm64.705,8.521-2.13-5.924h-8.156L164.1,9.234h-3.677l7.981-21.42H172.2l7.981,21.42ZM173.422.3l-2-5.807q-.219-.584-.606-1.838t-.533-1.838a32.7,32.7,0,0,1-1.153,3.925L167.207.3Z" transform="translate(1387.503 1446.483)" fill="#fff"/></g></svg>