<svg xmlns="http://www.w3.org/2000/svg" width="45.091" height="39" viewBox="0 0 45.091 39"><g transform="translate(-1.5 -4.5)"><path d="M45.935,11.162a2.235,2.235,0,0,0-1.594-.662H42.75V6.75A2.253,2.253,0,0,0,40.5,4.5H8.121A6.621,6.621,0,0,0,1.5,11.121V36.879A6.621,6.621,0,0,0,8.121,43.5H44.253a2.254,2.254,0,0,0,2.25-2.243l.089-28.5a2.235,2.235,0,0,0-.656-1.6ZM43.5,40.5H8.121A3.621,3.621,0,0,1,4.5,36.879V11.121A3.621,3.621,0,0,1,8.121,7.5H39.75v3H8.25v3H43.589Z"/><path d="M36.75,24.75h3v3h-3Z"/></g></svg>