<svg xmlns="http://www.w3.org/2000/svg" width="41.997" height="41.968" viewBox="0 0 41.997 41.968"><g transform="translate(-3.002 -3.017)"><path d="M41,3.017h0a9.93,9.93,0,0,1,2.333.252A1.919,1.919,0,0,1,44.76,4.72c.661,2.9-.07,7.319-2.007,12.125a38.5,38.5,0,0,1-7.993,12.506,29.144,29.144,0,0,1-3.187,2.771,12.392,12.392,0,0,1-.886,5.467c-2.377,5.438-8.476,6.963-10.988,7.367a2.344,2.344,0,0,1-2.7-2.55v-.013l.661-6.021-.2-.021a3.209,3.209,0,0,1-1.944-.931l-2.936-2.936a3.209,3.209,0,0,1-.931-1.945q-.012-.1-.022-.21l-6.026.662H5.584a2.344,2.344,0,0,1-2.552-2.708A18.85,18.85,0,0,1,4.8,22.817,11.537,11.537,0,0,1,10.4,17.3a11.857,11.857,0,0,1,4.759-.9c.24,0,.486.005.734.016a29.236,29.236,0,0,1,2.768-3.175A37.73,37.73,0,0,1,29.727,5.92,29.867,29.867,0,0,1,41,3.017Zm.946,3.049A8.472,8.472,0,0,0,41,6.017c-5.138,0-14.705,3.84-20.219,9.35l0,0a26.219,26.219,0,0,0-2.934,3.465,1.5,1.5,0,0,1-1.36.628c-.455-.041-.9-.062-1.324-.062a8.9,8.9,0,0,0-3.555.646c-1.286.566-4.3,2.443-5.454,7.862l6.714-.737a1.5,1.5,0,0,1,1.664,1.477,15.465,15.465,0,0,0,.094,1.563l0,.016a.2.2,0,0,0,.059.123l.006.006L17.635,33.3l.006.006a.2.2,0,0,0,.123.059l.017,0a15.429,15.429,0,0,0,1.554.094,1.5,1.5,0,0,1,1.476,1.664l-.736,6.707c2.317-.5,6.294-1.858,7.862-5.444a10.071,10.071,0,0,0,.592-4.866,1.5,1.5,0,0,1,.63-1.355,26.126,26.126,0,0,0,3.474-2.933l.006-.006a35.4,35.4,0,0,0,7.33-11.5C41.5,11.924,42.217,8.394,41.949,6.066ZM30.83,11.7a5.5,5.5,0,1,1-3.892,1.612A5.467,5.467,0,0,1,30.83,11.7Zm0,8.008a2.507,2.507,0,1,0-1.77-.735A2.482,2.482,0,0,0,30.83,19.706Z" transform="translate(0 0)"/><path d="M6,43.5a1.5,1.5,0,0,1-1.5-1.538,33.587,33.587,0,0,1,.3-3.448c.378-2.677,1.014-4.434,1.947-5.369a5.754,5.754,0,0,1,3.35-1.634,1.5,1.5,0,1,1,.366,2.978,2.737,2.737,0,0,0-1.593.776c-.11.111-.693.818-1.095,3.641-.075.528-.13,1.039-.17,1.49.451-.04.963-.1,1.492-.171,2.822-.4,3.527-.984,3.64-1.1a2.707,2.707,0,0,0,.776-1.59,1.5,1.5,0,0,1,2.979.357,5.717,5.717,0,0,1-1.636,3.357c-.931.932-2.687,1.57-5.366,1.948a33.565,33.565,0,0,1-3.449.3Z" transform="translate(0 0.001)"/></g></svg>