<svg xmlns="http://www.w3.org/2000/svg" width="33.429" height="39" viewBox="0 0 33.429 39"><g transform="translate(-6 -3)"><path d="M39.429,8.571a5.571,5.571,0,1,0-8.357,4.822v4.6l-8.357,4.179-8.357-4.179v-4.6a5.571,5.571,0,1,0-5.571,0v8.043l11.143,5.571v4.6a5.571,5.571,0,1,0,5.571,0v-4.6l11.143-5.571V13.393a5.574,5.574,0,0,0,2.786-4.822ZM11.571,5.786A2.786,2.786,0,1,1,8.786,8.571,2.786,2.786,0,0,1,11.571,5.786ZM22.714,39.214A2.786,2.786,0,1,1,25.5,36.429,2.786,2.786,0,0,1,22.714,39.214ZM33.857,11.357a2.786,2.786,0,1,1,2.786-2.786A2.786,2.786,0,0,1,33.857,11.357Z" transform="translate(0 0)"/></g></svg>