<svg xmlns="http://www.w3.org/2000/svg" xmlns:xlink="http://www.w3.org/1999/xlink" width="46.964" height="39" viewBox="0 0 46.964 39"><defs><clipPath id="a"><rect width="46.964" height="39"/></clipPath></defs><g clip-path="url(#a)"><path d="M28.094,26.527,38.2,3.763a6.485,6.485,0,0,0-1.03-.393A5.688,5.688,0,0,0,33.1,3.9a5.346,5.346,0,0,1-3.567.769c.479-.166.884-.277,1.266-.445a2.344,2.344,0,0,0,1.565-2.159A1.152,1.152,0,0,0,30.705.942a.55.55,0,0,1,.413-.888,3.4,3.4,0,0,1,.735-.042c4.62-.008,9.24-.019,13.86-.006a1.673,1.673,0,0,1,1.018.307.628.628,0,0,1-.018.989c-.922-.8-1.6-.685-2.143.431a12.855,12.855,0,0,0-.619,1.932A9.563,9.563,0,0,1,43.666,4.7c-.263.612-.509.617-.961.042a1.936,1.936,0,0,0,.373-.409.882.882,0,0,0,.127-.606.78.78,0,0,0-.514-.363c-.541-.112-1.013.232-1.32.937-.482,1.109-.93,2.234-1.418,3.34Q33.434,22.427,26.9,37.208c-.255.577-.568,1.129-.9,1.793-.15-.253-.231-.372-.295-.5Q17.547,22.194,9.4,5.885A4.043,4.043,0,0,0,6.9,3.569,3.278,3.278,0,0,0,2.787,6.1a5.653,5.653,0,0,1-.262,1.026,2.341,2.341,0,0,1-.249-2.188c.142-.529.339-1.045.443-1.58a2.364,2.364,0,0,0-.77-2.261A1.191,1.191,0,0,0,.1,1.112.692.692,0,0,1,.613.042,3.435,3.435,0,0,1,1.236.011c4.223,0,8.445.015,12.668,0a.94.94,0,0,1,.983.615q6.484,12.793,13.006,25.567c.049.1.112.188.2.336" transform="translate(-0.001 0)"/></g></svg>