<svg xmlns="http://www.w3.org/2000/svg" width="39" height="39" viewBox="0 0 39 39"><g transform="translate(-3 -3)"><path d="M44.143,44.143H33V33H44.143Zm-8.357-2.786h5.571V35.786H35.786Z" transform="translate(-2.143 -2.143)"/><path d="M28.071,39.214H11.357a8.357,8.357,0,0,1,0-16.714h2.786v2.786H11.357a5.571,5.571,0,1,0,0,11.143H28.071Z" transform="translate(0 -1.393)"/><path d="M29.143,29.143H18V18H29.143Zm-8.357-2.786h5.571V20.786H20.786Z" transform="translate(-1.071 -1.071)"/><path d="M34.714,24.214H31.929V21.429h2.786a5.571,5.571,0,1,0,0-11.143H18V7.5H34.714a8.357,8.357,0,0,1,0,16.714Z" transform="translate(-1.071 -0.321)"/><path d="M14.143,14.143H3V3H14.143ZM5.786,11.357h5.571V5.786H5.786Z" transform="translate(0 0)"/></g></svg>