<svg xmlns="http://www.w3.org/2000/svg" width="39" height="39" viewBox="0 0 39 39"><g transform="translate(-3.619 -3.059)"><path d="M38.893,23.621V21.484l2.754-2.347a2.742,2.742,0,0,0,.545-3.562L38.806,9.988a2.884,2.884,0,0,0-2.482-1.4,2.941,2.941,0,0,0-.918.14L31.92,9.876a16.4,16.4,0,0,0-1.879-1.048l-.732-3.52A2.853,2.853,0,0,0,26.44,3.06H19.726a2.853,2.853,0,0,0-2.869,2.249l-.732,3.52a16.594,16.594,0,0,0-1.894,1.048l-3.414-1.2A2.944,2.944,0,0,0,9.9,8.591a2.884,2.884,0,0,0-2.482,1.4L4.031,15.575a2.742,2.742,0,0,0,.588,3.506L7.331,21.5v2.137L4.619,25.982a2.742,2.742,0,0,0-.588,3.562l3.386,5.587a2.884,2.884,0,0,0,2.482,1.4,2.94,2.94,0,0,0,.918-.14L14.3,35.242a16.4,16.4,0,0,0,1.879,1.048l.732,3.52a2.853,2.853,0,0,0,2.869,2.249h6.771a2.853,2.853,0,0,0,2.869-2.249l.732-3.52a16.594,16.594,0,0,0,1.894-1.048l3.472,1.145a2.94,2.94,0,0,0,.918.14,2.884,2.884,0,0,0,2.482-1.4l3.271-5.587a2.742,2.742,0,0,0-.588-3.506ZM36.325,33.734,31.4,32.114a12.8,12.8,0,0,1-3.888,2.193L26.5,39.321H19.726l-1.019-4.959a13.518,13.518,0,0,1-3.873-2.193L9.9,33.734,6.513,28.147l3.9-3.352a12.109,12.109,0,0,1,0-4.372l-3.9-3.45L9.9,11.385l4.921,1.62a12.8,12.8,0,0,1,3.888-2.193L19.726,5.8H26.5l1.019,4.959a13.518,13.518,0,0,1,3.873,2.193l4.935-1.564,3.386,5.587-3.9,3.352a12.109,12.109,0,0,1,0,4.372l3.9,3.45Z" transform="translate(0 0)"/><path d="M24,33a9,9,0,1,1,9-9,8.91,8.91,0,0,1-9,9Zm0-15a5.865,5.865,0,0,0-6,6,5.865,5.865,0,0,0,6,6,5.865,5.865,0,0,0,6-6,5.865,5.865,0,0,0-6-6Z" transform="translate(-0.888 -1.441)"/></g></svg>