<svg id="sun" xmlns="http://www.w3.org/2000/svg" width="48" height="48" viewBox="0 0 48 48">
  <g id="Group_390" data-name="Group 390">
    <path id="Path_468" data-name="Path 468" d="M24,32a8,8,0,1,0-8-8A8,8,0,0,0,24,32Zm0,4A12,12,0,1,0,12,24,12,12,0,0,0,24,36Z" fill="#fff" fill-rule="evenodd"/>
    <path id="Path_469" data-name="Path 469" d="M22,0h4V8.124a16.158,16.158,0,0,0-4,0ZM14.188,11.36,8.444,5.616,5.616,8.444l5.744,5.744a16.1,16.1,0,0,1,2.828-2.828ZM8.124,22H0v4H8.124a16.158,16.158,0,0,1,0-4ZM11.36,33.812,5.616,39.556l2.828,2.828,5.744-5.744a16.1,16.1,0,0,1-2.828-2.828ZM22,39.876V48h4V39.876A16.138,16.138,0,0,1,22,39.876ZM33.812,36.64l5.744,5.744,2.828-2.828L36.64,33.812a16.1,16.1,0,0,1-2.828,2.828ZM39.876,26H48V22H39.876A16.138,16.138,0,0,1,39.876,26ZM36.64,14.188l5.744-5.744L39.556,5.616,33.812,11.36a16.105,16.105,0,0,1,2.828,2.828Z" fill="#fff" fill-rule="evenodd"/>
  </g>
</svg>
