<svg xmlns="http://www.w3.org/2000/svg" width="45" height="45" viewBox="0 0 45 45"><g transform="translate(0 -3)"><g transform="translate(0 3)"><path d="M37.468,35.832a3.143,3.143,0,0,0-.807,2.414,35.158,35.158,0,0,0,1.119,6.028,31.766,31.766,0,0,1-7.408-2.691,2.643,2.643,0,0,0-2-.223,21.246,21.246,0,0,1-5.875.82c-11.239,0-19.687-8.46-19.687-18.083S11.261,6.014,22.5,6.014,42.188,14.477,42.188,24.1A17.153,17.153,0,0,1,37.468,35.832ZM38.855,47.6q1,.212,2.005.389a.772.772,0,0,0,.768-1.091q-.375-.947-.686-1.92l-.008-.03a33.4,33.4,0,0,1-1.474-6.989A20.276,20.276,0,0,0,45,24.1C45,12.445,34.926,3,22.5,3S0,12.445,0,24.1s10.074,21.1,22.5,21.1a23.882,23.882,0,0,0,6.6-.922A36.688,36.688,0,0,0,38.855,47.6Z" transform="translate(0 -3)"/><path d="M35.574,16.5A1.487,1.487,0,0,0,34.1,15H13.473a1.5,1.5,0,0,0,0,3H34.1A1.487,1.487,0,0,0,35.574,16.5Zm0,7.5A1.487,1.487,0,0,0,34.1,22.5H13.473a1.5,1.5,0,0,0,0,3H34.1A1.487,1.487,0,0,0,35.574,24Zm0,7.5A1.487,1.487,0,0,0,34.1,30H22.313a1.5,1.5,0,0,0,0,3H34.1A1.487,1.487,0,0,0,35.574,31.5Z" transform="translate(-1.287 -2.908)"/></g></g></svg>