<svg xmlns="http://www.w3.org/2000/svg" width="44.999" height="44.999" viewBox="0 0 44.999 44.999"><g transform="translate(-1.5 -1.501)"><path d="M25.151,46.5A23.654,23.654,0,0,1,14.459,1.749a2.291,2.291,0,0,1,3.226,2.717,20.636,20.636,0,0,0,5.138,20.712,20.507,20.507,0,0,0,14.591,6.06,20.644,20.644,0,0,0,6.12-.923,2.291,2.291,0,0,1,2.715,3.231A23.649,23.649,0,0,1,25.151,46.5ZM14.373,5.229a20.654,20.654,0,1,0,28.4,28.4,23.71,23.71,0,0,1-5.356.611A23.488,23.488,0,0,1,20.7,27.3,23.639,23.639,0,0,1,14.373,5.23Z"/></g></svg>