<svg xmlns="http://www.w3.org/2000/svg" width="686" height="687" viewBox="0 0 686 687"><g transform="translate(-634 -2045)"><rect width="686" height="687" transform="translate(634 2045)"/><text transform="translate(1214 2537)" fill="#fff" font-size="56" font-family="Open Sans" font-weight="800" letter-spacing="0.5em"><tspan x="-30.297" y="0">I</tspan><tspan y="0">D</tspan></text><g transform="translate(-1352.473 -180.723)"><path d="M35.5,15A20.5,20.5,0,1,0,56,35.5,20.523,20.523,0,0,0,35.5,15m0-15A35.5,35.5,0,1,1,0,35.5,35.5,35.5,0,0,1,35.5,0Z" transform="translate(2304.473 2750.723)" fill="#03ff00"/><path d="M35,15A20.278,20.278,0,0,0,15,35.5,20.278,20.278,0,0,0,35,56,20.278,20.278,0,0,0,55,35.5,20.278,20.278,0,0,0,35,15M35,0C54.33,0,70,15.894,70,35.5S54.33,71,35,71,0,55.106,0,35.5,15.67,0,35,0Z" transform="translate(2118.473 2417.723)" fill="#03ff00"/><path d="M35.5,15A20.5,20.5,0,1,0,56,35.5,20.523,20.523,0,0,0,35.5,15m0-15A35.5,35.5,0,1,1,0,35.5,35.5,35.5,0,0,1,35.5,0Z" transform="translate(2276.473 2479.723)" fill="#03ff00"/><path d="M35.5,15A20.5,20.5,0,1,0,56,35.5,20.523,20.523,0,0,0,35.5,15m0-15A35.5,35.5,0,1,1,0,35.5,35.5,35.5,0,0,1,35.5,0Z" transform="translate(2310.473 2316.723)" fill="#03ff00"/><path d="M35,15A20.278,20.278,0,0,0,15,35.5,20.278,20.278,0,0,0,35,56,20.278,20.278,0,0,0,55,35.5,20.278,20.278,0,0,0,35,15M35,0C54.33,0,70,15.894,70,35.5S54.33,71,35,71,0,55.106,0,35.5,15.67,0,35,0Z" transform="translate(2526.473 2534.723)" fill="#03ff00"/></g><path d="M-45.971,22.051l-3.4-9.469H-62.413l-3.335,9.469h-5.877l12.757-34.236H-52.8l12.757,34.236ZM-50.845,7.778-54.04-1.5q-.35-.933-.968-2.939t-.851-2.939A52.267,52.267,0,0,1-57.7-1.108L-60.78,7.778ZM36.508,22.051,26.62-6.425h-.187q.4,6.343.4,11.894V22.051H21.769v-34.1h7.859L39.1,15.077h.14l9.748-27.123h7.883v34.1H51.5V5.189q0-2.542.128-6.623t.222-4.944h-.187L41.429,22.051Zm113.381-34.1V10.017a13.085,13.085,0,0,1-1.621,6.612,10.8,10.8,0,0,1-4.688,4.361,16.291,16.291,0,0,1-7.335,1.528q-6.343,0-9.865-3.358t-3.522-9.235V-12.046h5.6V9.527q0,4.221,1.959,6.227t6.017,2.006q7.883,0,7.883-8.279V-12.046ZM221.5,3.813h3.871q3.895,0,5.644-1.446a5.246,5.246,0,0,0,1.749-4.291,4.619,4.619,0,0,0-1.889-4.151,10.357,10.357,0,0,0-5.69-1.259H221.5Zm0,4.618v13.62h-5.574v-34.1h9.632q6.6,0,9.772,2.472T238.5-2.111q0,6.367-6.623,9.072l9.632,15.089h-6.343L227,8.431Zm103.422,13.62-3.4-9.469H308.481l-3.335,9.469h-5.877l12.757-34.236h6.064l12.757,34.236ZM320.048,7.778l-3.2-9.282q-.35-.933-.968-2.939t-.851-2.939a52.272,52.272,0,0,1-1.842,6.274l-3.078,8.886Z" transform="translate(798.39 2471.483)" fill="#fff"/></g></svg>