<svg xmlns="http://www.w3.org/2000/svg" width="478" height="505" viewBox="0 0 478 505"><g transform="translate(-2118.473 -2316.723)"><path d="M35.5,15A20.5,20.5,0,1,0,56,35.5,20.523,20.523,0,0,0,35.5,15m0-15A35.5,35.5,0,1,1,0,35.5,35.5,35.5,0,0,1,35.5,0Z" transform="translate(2304.473 2750.723)" fill="#03ff00"/><path d="M35,15A20.278,20.278,0,0,0,15,35.5,20.278,20.278,0,0,0,35,56,20.278,20.278,0,0,0,55,35.5,20.278,20.278,0,0,0,35,15M35,0C54.33,0,70,15.894,70,35.5S54.33,71,35,71,0,55.106,0,35.5,15.67,0,35,0Z" transform="translate(2118.473 2417.723)" fill="#03ff00"/><path d="M35.5,15A20.5,20.5,0,1,0,56,35.5,20.523,20.523,0,0,0,35.5,15m0-15A35.5,35.5,0,1,1,0,35.5,35.5,35.5,0,0,1,35.5,0Z" transform="translate(2276.473 2479.723)" fill="#03ff00"/><path d="M35.5,15A20.5,20.5,0,1,0,56,35.5,20.523,20.523,0,0,0,35.5,15m0-15A35.5,35.5,0,1,1,0,35.5,35.5,35.5,0,0,1,35.5,0Z" transform="translate(2310.473 2316.723)" fill="#03ff00"/><path d="M35,15A20.278,20.278,0,0,0,15,35.5,20.278,20.278,0,0,0,35,56,20.278,20.278,0,0,0,55,35.5,20.278,20.278,0,0,0,35,15M35,0C54.33,0,70,15.894,70,35.5S54.33,71,35,71,0,55.106,0,35.5,15.67,0,35,0Z" transform="translate(2526.473 2534.723)" fill="#03ff00"/></g></svg>